<mxfile host="app.diagrams.net" modified="2024-05-01T19:26:46.279Z" agent="Mozilla/5.0 (Windows NT 10.0; Win64; x64) AppleWebKit/537.36 (KHTML, like Gecko) Chrome/124.0.0.0 Safari/537.36" etag="WjyYmbWMSRQbCcTUD2A6" version="24.2.8" type="device">
  <diagram name="Page-1" id="2YBvvXClWsGukQMizWep">
    <mxGraphModel dx="1290" dy="522" grid="1" gridSize="10" guides="1" tooltips="1" connect="1" arrows="1" fold="1" page="1" pageScale="1" pageWidth="850" pageHeight="1100" math="0" shadow="0">
      <root>
        <mxCell id="0" />
        <mxCell id="1" parent="0" />
        <mxCell id="F2SxSTT8hz7Iwo73es0D-1" value="ticket:Ticket" style="shape=umlLifeline;perimeter=lifelinePerimeter;whiteSpace=wrap;html=1;container=1;dropTarget=0;collapsible=0;recursiveResize=0;outlineConnect=0;portConstraint=eastwest;newEdgeStyle={&quot;curved&quot;:0,&quot;rounded&quot;:0};" vertex="1" parent="1">
          <mxGeometry x="390" y="20" width="100" height="470" as="geometry" />
        </mxCell>
        <mxCell id="F2SxSTT8hz7Iwo73es0D-5" value="" style="html=1;points=[[0,0,0,0,5],[0,1,0,0,-5],[1,0,0,0,5],[1,1,0,0,-5]];perimeter=orthogonalPerimeter;outlineConnect=0;targetShapes=umlLifeline;portConstraint=eastwest;newEdgeStyle={&quot;curved&quot;:0,&quot;rounded&quot;:0};" vertex="1" parent="1">
          <mxGeometry x="435" y="160" width="10" height="300" as="geometry" />
        </mxCell>
        <mxCell id="F2SxSTT8hz7Iwo73es0D-3" value="item:Item" style="shape=umlLifeline;perimeter=lifelinePerimeter;whiteSpace=wrap;html=1;container=1;dropTarget=0;collapsible=0;recursiveResize=0;outlineConnect=0;portConstraint=eastwest;newEdgeStyle={&quot;curved&quot;:0,&quot;rounded&quot;:0};" vertex="1" parent="1">
          <mxGeometry x="550" y="20" width="100" height="470" as="geometry" />
        </mxCell>
        <mxCell id="F2SxSTT8hz7Iwo73es0D-4" value="loop&lt;div&gt;for each&lt;/div&gt;" style="shape=umlFrame;whiteSpace=wrap;html=1;pointerEvents=0;" vertex="1" parent="1">
          <mxGeometry x="410" y="200" width="220" height="220" as="geometry" />
        </mxCell>
        <mxCell id="F2SxSTT8hz7Iwo73es0D-7" value="" style="html=1;points=[[0,0,0,0,5],[0,1,0,0,-5],[1,0,0,0,5],[1,1,0,0,-5]];perimeter=orthogonalPerimeter;outlineConnect=0;targetShapes=umlLifeline;portConstraint=eastwest;newEdgeStyle={&quot;curved&quot;:0,&quot;rounded&quot;:0};" vertex="1" parent="1">
          <mxGeometry x="595" y="230" width="10" height="180" as="geometry" />
        </mxCell>
        <mxCell id="F2SxSTT8hz7Iwo73es0D-8" value="getCant()" style="html=1;verticalAlign=bottom;endArrow=block;curved=0;rounded=0;entryX=0;entryY=0;entryDx=0;entryDy=5;entryPerimeter=0;" edge="1" parent="1">
          <mxGeometry width="80" relative="1" as="geometry">
            <mxPoint x="445" y="240" as="sourcePoint" />
            <mxPoint x="595" y="240" as="targetPoint" />
          </mxGeometry>
        </mxCell>
        <mxCell id="F2SxSTT8hz7Iwo73es0D-9" value="return int" style="html=1;verticalAlign=bottom;endArrow=open;dashed=1;endSize=8;curved=0;rounded=0;exitX=0;exitY=1;exitDx=0;exitDy=-5;exitPerimeter=0;" edge="1" parent="1">
          <mxGeometry relative="1" as="geometry">
            <mxPoint x="595" y="265" as="sourcePoint" />
            <mxPoint x="445" y="265" as="targetPoint" />
          </mxGeometry>
        </mxCell>
        <mxCell id="F2SxSTT8hz7Iwo73es0D-11" value="getElemento()" style="html=1;verticalAlign=bottom;endArrow=block;curved=0;rounded=0;entryX=0;entryY=0;entryDx=0;entryDy=5;entryPerimeter=0;" edge="1" parent="1">
          <mxGeometry width="80" relative="1" as="geometry">
            <mxPoint x="445" y="295" as="sourcePoint" />
            <mxPoint x="595" y="295" as="targetPoint" />
          </mxGeometry>
        </mxCell>
        <mxCell id="F2SxSTT8hz7Iwo73es0D-13" value="return ComponenteCombo" style="html=1;verticalAlign=bottom;endArrow=open;dashed=1;endSize=8;curved=0;rounded=0;exitX=0;exitY=1;exitDx=0;exitDy=-5;exitPerimeter=0;" edge="1" parent="1">
          <mxGeometry relative="1" as="geometry">
            <mxPoint x="595" y="325" as="sourcePoint" />
            <mxPoint x="445" y="325" as="targetPoint" />
          </mxGeometry>
        </mxCell>
        <mxCell id="F2SxSTT8hz7Iwo73es0D-14" value="getPrecioTotal()" style="html=1;verticalAlign=bottom;endArrow=block;curved=0;rounded=0;entryX=0;entryY=0;entryDx=0;entryDy=5;entryPerimeter=0;" edge="1" parent="1">
          <mxGeometry width="80" relative="1" as="geometry">
            <mxPoint x="445" y="365" as="sourcePoint" />
            <mxPoint x="595" y="365" as="targetPoint" />
          </mxGeometry>
        </mxCell>
        <mxCell id="F2SxSTT8hz7Iwo73es0D-15" value="return double" style="html=1;verticalAlign=bottom;endArrow=open;dashed=1;endSize=8;curved=0;rounded=0;exitX=0;exitY=1;exitDx=0;exitDy=-5;exitPerimeter=0;" edge="1" parent="1">
          <mxGeometry relative="1" as="geometry">
            <mxPoint x="595" y="395" as="sourcePoint" />
            <mxPoint x="445" y="395" as="targetPoint" />
          </mxGeometry>
        </mxCell>
        <mxCell id="F2SxSTT8hz7Iwo73es0D-16" value="calcularTotal()" style="html=1;verticalAlign=bottom;endArrow=block;curved=0;rounded=0;" edge="1" parent="1">
          <mxGeometry width="80" relative="1" as="geometry">
            <mxPoint x="435" y="440" as="sourcePoint" />
            <mxPoint x="95" y="440" as="targetPoint" />
          </mxGeometry>
        </mxCell>
        <mxCell id="F2SxSTT8hz7Iwo73es0D-17" value="imprimirTicket()" style="html=1;verticalAlign=bottom;endArrow=block;curved=0;rounded=0;fillColor=#FFFFFF;" edge="1" parent="1">
          <mxGeometry width="80" relative="1" as="geometry">
            <mxPoint x="95" y="190" as="sourcePoint" />
            <mxPoint x="435" y="190" as="targetPoint" />
          </mxGeometry>
        </mxCell>
        <mxCell id="F2SxSTT8hz7Iwo73es0D-18" value="cliente:Cliente" style="shape=umlLifeline;perimeter=lifelinePerimeter;whiteSpace=wrap;html=1;container=1;dropTarget=0;collapsible=0;recursiveResize=0;outlineConnect=0;portConstraint=eastwest;newEdgeStyle={&quot;curved&quot;:0,&quot;rounded&quot;:0};" vertex="1" parent="1">
          <mxGeometry x="40" y="20" width="100" height="470" as="geometry" />
        </mxCell>
        <mxCell id="F2SxSTT8hz7Iwo73es0D-19" value="" style="html=1;points=[[0,0,0,0,5],[0,1,0,0,-5],[1,0,0,0,5],[1,1,0,0,-5]];perimeter=orthogonalPerimeter;outlineConnect=0;targetShapes=umlLifeline;portConstraint=eastwest;newEdgeStyle={&quot;curved&quot;:0,&quot;rounded&quot;:0};" vertex="1" parent="F2SxSTT8hz7Iwo73es0D-18">
          <mxGeometry x="45" y="60" width="10" height="380" as="geometry" />
        </mxCell>
        <mxCell id="F2SxSTT8hz7Iwo73es0D-20" value="combo:Combo" style="shape=umlLifeline;perimeter=lifelinePerimeter;whiteSpace=wrap;html=1;container=1;dropTarget=0;collapsible=0;recursiveResize=0;outlineConnect=0;portConstraint=eastwest;newEdgeStyle={&quot;curved&quot;:0,&quot;rounded&quot;:0};" vertex="1" parent="1">
          <mxGeometry x="215" y="20" width="100" height="470" as="geometry" />
        </mxCell>
        <mxCell id="F2SxSTT8hz7Iwo73es0D-21" value="" style="html=1;points=[[0,0,0,0,5],[0,1,0,0,-5],[1,0,0,0,5],[1,1,0,0,-5]];perimeter=orthogonalPerimeter;outlineConnect=0;targetShapes=umlLifeline;portConstraint=eastwest;newEdgeStyle={&quot;curved&quot;:0,&quot;rounded&quot;:0};" vertex="1" parent="F2SxSTT8hz7Iwo73es0D-20">
          <mxGeometry x="45" y="60" width="10" height="80" as="geometry" />
        </mxCell>
        <mxCell id="F2SxSTT8hz7Iwo73es0D-22" value="add(hamburguesa)" style="html=1;verticalAlign=bottom;endArrow=block;curved=0;rounded=0;" edge="1" parent="1">
          <mxGeometry width="80" relative="1" as="geometry">
            <mxPoint x="95" y="90" as="sourcePoint" />
            <mxPoint x="260" y="90" as="targetPoint" />
          </mxGeometry>
        </mxCell>
        <mxCell id="F2SxSTT8hz7Iwo73es0D-23" value="add(papas)" style="html=1;verticalAlign=bottom;endArrow=block;curved=0;rounded=0;" edge="1" parent="1">
          <mxGeometry width="80" relative="1" as="geometry">
            <mxPoint x="95" y="120" as="sourcePoint" />
            <mxPoint x="260" y="120" as="targetPoint" />
          </mxGeometry>
        </mxCell>
        <mxCell id="F2SxSTT8hz7Iwo73es0D-24" value="add(gaseosa)" style="html=1;verticalAlign=bottom;endArrow=block;curved=0;rounded=0;" edge="1" parent="1">
          <mxGeometry width="80" relative="1" as="geometry">
            <mxPoint x="95" y="150" as="sourcePoint" />
            <mxPoint x="260" y="150" as="targetPoint" />
          </mxGeometry>
        </mxCell>
      </root>
    </mxGraphModel>
  </diagram>
</mxfile>
